<?xml version="1.0" encoding="UTF-8" standalone="no"?>
<!DOCTYPE svg PUBLIC "-//W3C//DTD SVG 1.1//EN" "http://www.w3.org/Graphics/SVG/1.1/DTD/svg11.dtd">
<svg xmlns="http://www.w3.org/2000/svg" version="1.1" viewBox="0.00 0.00 1024.00 1024.00">
<path fill="#ffffff" d="
  M 962.18 740.38
  Q 954.42 755.63 945.89 769.91
  Q 907.86 833.64 852.55 884.31
  Q 805.14 927.73 748.17 957.87
  Q 665.41 1001.65 571.05 1012.92
  Q 563.05 1013.87 554.77 1013.91
  Q 547.88 1013.95 541.09 1014.68
  Q 534.10 1015.44 527.75 1015.43
  Q 511.07 1015.39 494.04 1015.45
  Q 489.87 1015.46 486.16 1014.95
  C 481.68 1014.33 477.09 1013.56 472.56 1014.15
  Q 469.54 1014.54 466.41 1014.26
  Q 461.21 1013.80 456.00 1013.19
  Q 426.48 1009.73 398.93 1003.54
  C 391.93 1001.97 385.20 1000.14 378.33 998.39
  Q 374.04 997.30 370.05 996.12
  Q 288.84 972.26 219.59 923.05
  Q 170.21 887.96 131.88 843.45
  Q 115.62 824.56 99.59 802.45
  Q 93.63 794.24 88.32 786.06
  Q 38.58 709.48 18.91 619.86
  Q 14.68 600.57 12.06 580.99
  Q 11.05 573.41 10.15 566.22
  Q 9.61 561.86 9.41 557.75
  Q 9.27 554.93 8.89 552.07
  C 8.32 547.77 8.29 543.57 7.76 539.28
  Q 7.27 535.22 7.26 532.18
  Q 7.23 512.07 7.27 490.61
  C 7.27 489.00 7.54 487.67 7.94 486.14
  C 8.57 483.73 8.22 480.83 8.66 478.30
  C 9.30 474.57 9.21 470.82 9.72 467.04
  Q 10.10 464.19 10.33 461.54
  Q 12.66 434.75 17.27 411.27
  Q 27.67 358.43 49.72 308.74
  Q 92.86 211.55 170.74 139.87
  Q 177.99 133.20 185.84 126.55
  Q 278.41 48.21 398.03 19.88
  Q 404.75 18.29 411.37 17.08
  Q 412.58 16.85 413.79 16.61
  Q 428.30 13.65 448.75 10.94
  Q 452.97 10.38 457.39 10.12
  C 458.39 10.06 459.27 9.60 460.29 9.54
  Q 467.51 9.13 475.80 8.24
  Q 477.13 8.10 478.12 7.38
  Q 478.50 7.10 478.97 7.04
  C 484.10 6.40 488.77 6.97 493.78 6.98
  C 510.22 7.00 526.71 6.75 543.15 7.01
  Q 543.66 7.02 543.94 7.45
  Q 544.33 8.04 545.02 8.08
  Q 568.91 9.78 588.97 12.93
  Q 596.74 14.15 606.33 15.89
  Q 614.98 17.46 623.58 19.44
  Q 637.21 22.60 651.18 26.49
  Q 661.55 29.38 676.85 34.62
  Q 749.94 59.64 812.26 105.99
  Q 868.40 147.75 910.89 202.11
  Q 937.42 236.07 957.74 274.43
  Q 993.10 341.21 1007.32 413.65
  Q 1012.59 440.46 1014.39 461.79
  Q 1014.68 465.28 1015.08 468.95
  C 1015.61 473.75 1015.65 478.36 1016.23 483.06
  Q 1016.71 486.95 1016.72 490.39
  Q 1016.78 510.04 1016.76 529.81
  Q 1016.76 534.18 1016.19 538.67
  Q 1015.57 543.61 1015.24 548.01
  Q 1013.80 567.41 1012.15 580.02
  Q 1002.44 653.87 971.52 721.11
  Q 967.19 730.53 962.18 740.38
  Z
  M 590.69 90.00
  Q 583.44 88.48 575.62 87.60
  C 574.80 87.51 574.12 87.04 573.32 87.01
  Q 570.76 86.92 568.42 86.49
  Q 566.17 86.08 563.57 85.84
  Q 560.59 85.56 557.39 85.21
  Q 544.93 83.84 529.64 83.14
  Q 496.20 81.62 458.02 86.26
  Q 455.14 86.61 452.43 86.87
  C 450.43 87.06 448.72 87.69 446.73 87.87
  C 443.78 88.13 440.91 88.78 437.89 89.20
  Q 427.11 90.68 404.68 96.44
  Q 366.06 106.35 330.86 123.13
  Q 329.98 123.56 329.08 123.98
  Q 288.33 143.00 251.18 171.69
  Q 171.65 233.11 126.91 323.14
  Q 103.95 369.34 92.80 420.85
  C 91.78 425.54 94.36 428.02 97.44 430.87
  Q 103.21 436.20 108.26 441.68
  C 109.43 442.96 111.98 444.60 113.51 444.48
  Q 127.54 443.32 138.24 442.69
  Q 139.12 442.64 140.01 442.59
  Q 147.48 442.11 154.99 441.69
  Q 155.78 441.64 156.51 441.47
  Q 157.39 441.27 158.01 441.25
  Q 164.84 441.10 171.25 440.76
  C 171.91 440.72 172.44 440.28 173.26 440.24
  Q 178.57 439.99 183.52 439.97
  C 185.30 439.96 186.82 439.23 188.65 439.19
  C 194.94 439.08 203.51 439.44 208.57 436.34
  Q 234.65 420.40 251.90 412.18
  Q 263.92 406.45 273.06 402.47
  Q 312.71 385.22 352.77 374.29
  Q 378.10 367.37 395.17 364.16
  Q 413.03 360.79 428.76 358.52
  Q 431.42 358.13 434.29 357.73
  Q 437.15 357.33 439.82 357.18
  Q 442.12 357.04 443.96 356.60
  C 447.00 355.87 450.23 356.22 453.28 355.72
  Q 456.85 355.13 458.76 355.08
  Q 462.25 354.98 465.63 354.93
  C 466.65 354.91 467.12 354.34 468.04 354.29
  Q 474.07 353.92 480.91 354.00
  C 481.62 354.00 482.22 353.65 483.01 353.60
  Q 502.48 352.30 531.99 353.56
  Q 533.12 353.61 534.26 353.66
  Q 540.54 353.94 546.65 354.19
  C 548.55 354.27 550.32 355.04 552.21 354.97
  Q 557.28 354.80 561.51 355.56
  C 565.04 356.19 568.43 355.86 571.81 356.58
  C 574.55 357.17 577.29 357.03 580.04 357.55
  C 583.03 358.13 585.83 358.30 589.00 358.75
  Q 712.85 376.46 823.98 432.97
  A 5.45 5.33 59.7 0 0 826.09 433.55
  Q 857.80 435.63 890.05 437.25
  C 896.35 437.57 902.90 438.19 909.36 438.18
  A 3.23 3.22 -60.2 0 0 910.93 437.75
  L 930.26 426.56
  A 3.33 3.32 67.4 0 0 931.80 422.81
  Q 928.58 411.01 925.67 399.78
  Q 923.11 389.92 919.82 379.52
  Q 916.60 369.35 913.34 360.61
  Q 885.34 285.47 831.04 225.49
  Q 805.06 196.79 774.58 172.95
  Q 738.49 144.74 696.55 124.57
  Q 694.97 123.81 693.34 123.09
  Q 691.72 122.38 690.17 121.67
  Q 656.49 106.30 621.01 96.87
  Q 611.08 94.22 600.59 92.07
  Q 599.39 91.82 590.69 90.00
  Z
  M 92.34 589.89
  Q 94.34 600.45 96.47 610.71
  Q 101.07 632.97 107.64 653.23
  Q 110.63 662.44 114.24 672.00
  Q 123.27 695.91 136.69 720.65
  Q 141.39 729.33 147.17 739.54
  C 153.05 749.94 159.40 757.23 171.39 759.92
  Q 179.17 761.67 186.48 761.80
  Q 203.78 762.10 216.00 753.71
  Q 222.45 749.28 231.16 740.52
  Q 256.81 714.74 273.74 681.93
  Q 283.04 663.89 286.56 645.27
  C 287.18 642.00 287.26 638.51 287.52 635.14
  Q 287.79 631.48 287.48 627.66
  C 287.13 623.26 287.29 618.89 286.51 614.63
  Q 286.06 612.13 285.70 609.76
  Q 283.88 598.01 278.07 588.07
  Q 271.84 577.41 261.90 574.18
  Q 258.00 572.90 252.98 572.73
  Q 248.61 572.58 244.09 572.08
  Q 231.87 570.74 219.87 569.64
  C 218.67 569.53 217.65 568.91 216.40 568.97
  C 212.46 569.15 208.83 567.95 204.96 567.98
  Q 202.46 567.99 200.11 567.45
  C 196.80 566.70 193.42 567.07 190.03 566.51
  Q 187.56 566.11 184.91 565.95
  C 181.45 565.74 178.29 564.87 174.77 564.89
  Q 172.28 564.91 169.57 564.33
  C 166.66 563.72 163.06 564.24 159.97 563.34
  C 157.50 562.61 154.56 562.93 152.03 562.55
  Q 149.76 562.20 147.40 561.96
  Q 135.84 560.76 125.54 559.60
  C 124.77 559.51 124.00 559.10 123.30 559.07
  Q 118.00 558.86 114.27 558.23
  Q 102.89 556.28 96.25 564.15
  Q 94.04 566.76 93.22 570.72
  Q 92.46 574.40 92.02 578.05
  Q 91.27 584.29 92.34 589.89
  Z
  M 934.36 578.82
  C 934.07 570.42 930.99 561.82 922.54 558.72
  Q 920.61 558.02 917.82 557.87
  Q 914.27 557.69 913.00 558.00
  Q 907.76 559.29 903.88 559.72
  Q 885.51 561.77 850.97 565.07
  Q 848.99 565.26 847.08 565.56
  Q 845.23 565.85 843.25 565.90
  Q 840.27 565.98 837.43 566.46
  C 834.03 567.03 830.55 566.79 827.10 567.44
  Q 823.60 568.11 819.83 567.98
  C 818.98 567.95 818.30 568.44 817.50 568.50
  Q 804.53 569.48 791.42 570.99
  C 788.11 571.37 784.29 571.53 780.73 571.97
  C 774.76 572.69 769.13 572.72 763.41 574.32
  Q 758.95 575.56 756.11 578.29
  Q 750.82 583.40 746.63 591.25
  Q 740.60 602.55 739.23 616.98
  Q 737.87 631.27 739.19 641.77
  Q 741.20 657.64 748.47 673.77
  Q 761.75 703.27 784.32 728.94
  Q 794.77 740.82 803.74 748.98
  Q 813.38 757.74 827.25 760.49
  C 827.90 760.62 828.36 761.05 829.03 761.09
  C 832.88 761.35 836.66 762.29 840.56 762.11
  Q 851.62 761.60 862.41 757.38
  C 865.73 756.08 869.06 754.37 871.04 751.34
  Q 900.78 705.81 917.46 656.54
  Q 927.30 627.51 933.06 597.51
  C 934.05 592.36 934.43 587.26 934.66 582.06
  C 934.71 580.90 934.39 579.95 934.36 578.82
  Z
  M 440.39 934.25
  Q 447.30 935.54 453.50 936.23
  Q 455.03 936.41 456.43 936.73
  C 458.75 937.26 461.12 937.03 463.45 937.56
  C 466.80 938.32 470.22 937.99 473.57 938.60
  Q 476.25 939.09 478.83 939.13
  C 483.52 939.19 488.04 939.87 492.61 940.06
  Q 516.76 941.04 539.79 939.94
  C 543.13 939.78 546.42 939.32 549.84 939.20
  Q 553.65 939.06 557.03 938.57
  Q 560.22 938.11 563.45 938.06
  C 565.52 938.02 567.39 937.28 569.49 937.16
  Q 571.24 937.07 572.92 936.85
  Q 651.91 926.48 722.68 888.22
  C 728.33 885.16 733.35 881.94 736.37 875.96
  Q 738.68 871.39 737.91 866.45
  Q 737.17 861.68 734.37 857.58
  C 728.84 849.52 722.42 843.32 714.32 837.58
  Q 692.80 822.34 671.17 812.49
  Q 637.11 796.99 596.37 789.06
  Q 578.08 785.51 560.24 783.47
  Q 553.81 782.74 549.74 782.58
  C 548.32 782.53 547.20 781.89 545.75 781.91
  Q 540.69 781.99 536.87 781.52
  Q 532.04 780.94 527.86 780.89
  Q 518.04 780.77 508.18 780.24
  C 502.48 779.94 497.00 780.82 491.31 780.80
  Q 487.19 780.78 483.12 781.14
  Q 477.70 781.63 475.35 781.71
  Q 470.97 781.87 466.85 781.99
  Q 464.33 782.06 459.94 782.54
  Q 456.71 782.90 453.00 782.97
  Q 448.80 783.06 445.01 783.47
  Q 441.34 783.86 437.02 784.25
  Q 420.30 785.77 403.45 790.48
  Q 394.25 793.05 384.61 797.01
  Q 369.33 803.28 355.93 810.78
  Q 333.96 823.08 316.03 839.66
  Q 307.56 847.49 301.67 857.23
  C 296.12 866.39 295.43 876.44 303.35 884.21
  Q 306.53 887.32 308.46 888.34
  Q 328.40 898.93 348.51 907.40
  Q 386.98 923.61 427.12 931.65
  Q 435.88 933.41 440.39 934.25
  Z"
/>
</svg>
