<?xml version="1.0" encoding="UTF-8"?>
<!--Generator: Apple Native CoreSVG 175.5-->
<!DOCTYPE svg
PUBLIC "-//W3C//DTD SVG 1.1//EN"
       "http://www.w3.org/Graphics/SVG/1.1/DTD/svg11.dtd">
<svg version="1.1" xmlns="http://www.w3.org/2000/svg" xmlns:xlink="http://www.w3.org/1999/xlink" width="36.2134" height="22.0288">
 <g>
  <rect height="22.0288" opacity="0" width="36.2134" x="0" y="0"/>
  <path d="M33.4619 16.9702C33.4619 18.4058 32.6929 19.2261 31.3257 19.2261L4.92188 19.2261C3.5376 19.2261 2.76855 18.4058 2.76855 16.9702L2.76855 14.7656C2.76855 14.5093 2.92236 14.3555 3.17871 14.3555L3.57178 14.3555C4.27246 14.3555 4.76807 13.894 4.76807 13.1934L4.76807 8.76709C4.76807 8.06641 4.27246 7.60498 3.57178 7.60498L3.17871 7.60498C2.92236 7.60498 2.76855 7.45117 2.76855 7.19482L2.76855 5.00732C2.76855 3.57178 3.5376 2.75146 4.92188 2.75146L31.3257 2.75146C32.6929 2.75146 33.4619 3.57178 33.4619 5.00732Z" fill="#ffffff" fill-opacity="0.2125"/>
  <path d="M36.2134 17.312L36.2134 4.64844C36.2134 1.86279 34.436 0 31.77 0L4.47754 0C1.81152 0 0 1.86279 0 4.64844L0 17.312C0 20.0977 1.81152 21.9775 4.47754 21.9775L31.77 21.9775C34.436 21.9775 36.2134 20.0977 36.2134 17.312ZM33.4619 16.9702C33.4619 18.4058 32.6929 19.2261 31.3257 19.2261L4.92188 19.2261C3.5376 19.2261 2.76855 18.4058 2.76855 16.9702L2.76855 14.7656C2.76855 14.5093 2.92236 14.3555 3.17871 14.3555L3.57178 14.3555C4.27246 14.3555 4.76807 13.894 4.76807 13.1934L4.76807 8.76709C4.76807 8.06641 4.27246 7.60498 3.57178 7.60498L3.17871 7.60498C2.92236 7.60498 2.76855 7.45117 2.76855 7.19482L2.76855 5.00732C2.76855 3.57178 3.5376 2.75146 4.92188 2.75146L31.3257 2.75146C32.6929 2.75146 33.4619 3.57178 33.4619 5.00732ZM13.5693 17.9614L22.6782 17.9614C23.1396 17.9614 23.4644 17.6367 23.4644 17.1582C23.4644 16.6797 23.1396 16.3721 22.6782 16.3721L13.5693 16.3721C13.1079 16.3721 12.7832 16.6797 12.7832 17.1582C12.7832 17.6367 13.1079 17.9614 13.5693 17.9614Z" fill="#ffffff" fill-opacity="0.85"/>
 </g>
</svg>
