<?xml version="1.0" encoding="UTF-8" standalone="no"?>
<!DOCTYPE svg PUBLIC "-//W3C//DTD SVG 1.1//EN" "http://www.w3.org/Graphics/SVG/1.1/DTD/svg11.dtd">
<svg xmlns="http://www.w3.org/2000/svg" version="1.1" viewBox="0.00 0.00 355.00 354.00">
<path fill="#ffffff" d="
  M 120.28 223.39
  Q 120.36 224.01 120.98 224.01
  L 135.80 224.00
  A 1.24 1.24 0.0 0 0 137.04 222.70
  C 136.68 214.63 136.25 206.61 133.05 199.37
  Q 125.95 183.30 109.16 177.54
  Q 102.67 175.31 90.84 175.12
  Q 76.81 174.90 63.28 175.11
  C 60.39 175.15 55.37 175.51 53.03 173.72
  C 51.68 172.69 50.03 171.72 49.66 169.92
  Q 49.06 167.02 49.00 163.96
  Q 48.69 147.78 49.02 134.52
  Q 49.17 128.36 54.98 125.45
  Q 55.48 125.19 56.02 125.34
  C 56.89 125.57 57.80 125.06 58.71 125.05
  Q 74.73 124.98 91.52 124.97
  Q 93.07 124.97 93.05 123.42
  Q 92.80 102.77 92.86 84.22
  Q 92.89 76.43 95.42 68.22
  C 98.64 57.79 107.14 48.35 116.64 42.85
  C 120.22 40.78 124.00 39.79 127.86 38.38
  Q 129.91 37.63 132.48 37.39
  Q 140.27 36.66 142.75 36.70
  Q 176.84 37.26 206.50 36.82
  Q 217.39 36.65 226.52 37.54
  A 1.64 1.62 69.3 0 1 227.52 38.00
  Q 228.33 38.77 229.40 38.35
  Q 230.01 38.11 230.47 38.57
  L 230.96 39.05
  A 2.35 2.31 75.7 0 0 231.92 39.63
  Q 237.93 41.47 241.94 44.24
  C 253.44 52.20 262.73 66.19 262.89 80.75
  Q 263.09 99.80 262.97 123.89
  A 1.51 1.51 0.0 0 0 265.00 125.32
  Q 265.95 124.97 267.75 124.99
  Q 278.17 125.12 287.75 125.23
  Q 291.50 125.27 295.22 124.95
  Q 304.23 124.17 306.42 132.47
  Q 306.63 133.29 306.55 134.14
  C 306.48 134.90 306.73 135.51 306.72 136.30
  Q 306.52 145.21 306.84 154.35
  C 306.92 156.63 306.33 158.71 306.62 160.95
  Q 307.11 164.77 306.15 169.75
  C 305.37 173.77 299.82 175.15 296.32 175.12
  Q 280.49 175.01 265.78 175.03
  Q 259.88 175.04 254.41 175.60
  Q 246.64 176.38 238.71 180.82
  Q 236.71 181.94 235.17 183.61
  C 233.92 184.97 232.31 185.61 230.98 187.00
  C 224.29 194.01 219.87 203.32 219.14 213.01
  Q 218.73 218.37 219.05 223.13
  Q 219.11 224.06 220.05 224.05
  L 234.89 223.94
  Q 235.91 223.93 235.91 222.91
  C 235.88 217.53 235.57 211.91 237.49 206.81
  C 240.93 197.68 250.04 191.57 259.68 191.16
  Q 278.85 190.33 294.20 191.08
  C 302.87 191.51 309.94 195.37 314.16 202.86
  Q 317.02 207.96 317.26 209.56
  C 317.82 213.44 318.16 217.26 318.13 221.24
  Q 317.84 253.97 318.12 289.94
  C 318.16 295.34 317.70 300.91 314.51 305.50
  C 309.53 312.64 302.83 316.93 293.77 317.12
  Q 282.06 317.35 270.30 317.27
  Q 258.85 317.18 256.20 316.68
  Q 249.00 315.30 243.25 310.26
  C 240.61 307.95 238.78 304.26 237.24 301.07
  C 235.18 296.81 235.85 290.24 236.02 285.33
  Q 236.06 283.97 234.70 283.97
  L 219.82 284.00
  A 0.82 0.82 0.0 0 0 219.00 284.82
  Q 218.96 288.74 219.09 292.35
  C 219.23 296.30 216.23 300.97 211.68 300.98
  Q 177.65 301.05 145.33 301.01
  Q 137.58 301.00 137.19 293.06
  Q 136.98 288.77 136.98 284.66
  A 0.68 0.68 0.0 0 0 136.30 283.99
  L 120.94 284.00
  A 0.94 0.94 0.0 0 0 120.00 284.95
  Q 120.04 289.78 120.11 294.27
  Q 120.22 300.82 116.40 306.15
  Q 111.05 313.63 102.50 316.55
  Q 101.14 317.02 97.38 317.08
  Q 79.55 317.38 62.75 317.19
  C 58.99 317.15 54.13 316.79 50.90 314.30
  C 48.81 312.69 46.24 311.63 44.48 309.62
  Q 37.68 301.84 37.82 291.47
  Q 38.15 266.27 37.82 223.03
  Q 37.76 215.56 38.44 210.54
  C 39.53 202.42 47.15 194.53 54.75 192.14
  Q 58.66 190.90 65.64 190.89
  C 76.46 190.87 87.97 190.15 98.92 191.14
  Q 102.91 191.49 106.56 193.26
  Q 117.19 198.42 119.83 210.96
  C 120.58 214.52 119.82 219.29 120.28 223.39
  Z
  M 233.25 125.21
  Q 239.32 125.31 245.20 124.75
  Q 245.95 124.68 245.96 123.93
  Q 246.08 103.45 245.90 82.99
  Q 245.85 77.51 244.92 74.93
  Q 242.86 69.26 239.03 64.34
  C 236.60 61.21 232.63 58.82 229.22 56.78
  Q 226.45 55.11 222.61 54.55
  Q 215.56 53.51 208.00 53.68
  Q 203.21 53.78 198.78 53.70
  Q 194.31 53.61 189.56 53.78
  Q 176.98 54.24 162.26 53.91
  Q 152.67 53.69 142.08 53.65
  C 130.30 53.61 120.47 57.68 114.43 68.24
  Q 110.04 75.90 110.02 84.75
  Q 109.97 105.01 110.01 124.12
  A 0.87 0.87 0.0 0 0 110.88 124.99
  Q 168.77 124.97 227.00 125.16
  Q 230.11 125.17 233.25 125.21
  Z
  M 275.12 157.95
  Q 282.24 158.04 289.27 157.93
  A 0.73 0.73 0.0 0 0 289.99 157.20
  L 290.06 143.03
  A 1.03 1.03 0.0 0 0 289.03 142.00
  L 66.50 142.00
  Q 65.99 142.00 65.99 142.50
  L 66.01 157.01
  A 0.95 0.95 0.0 0 0 66.95 157.96
  Q 77.18 158.13 87.85 157.89
  Q 99.75 157.63 107.72 159.24
  Q 125.96 162.92 138.41 176.69
  Q 153.78 193.69 153.90 215.28
  Q 154.09 249.69 153.98 282.99
  A 1.02 1.02 0.0 0 0 155.00 284.01
  L 200.50 283.98
  Q 201.91 283.98 201.98 282.57
  C 202.37 273.66 201.86 264.58 202.05 256.03
  Q 202.41 239.85 202.08 226.74
  Q 201.84 216.93 202.68 210.20
  Q 206.19 182.19 229.19 167.05
  Q 235.53 162.88 243.45 160.60
  Q 252.21 158.09 259.24 157.99
  Q 268.20 157.86 275.12 157.95
  Z
  M 300.20 227.57
  Q 300.38 227.91 300.84 227.41
  A 0.52 0.52 0.0 0 0 300.98 227.03
  Q 300.91 222.37 301.39 216.23
  C 301.68 212.36 298.58 209.15 295.36 207.63
  Q 294.42 207.19 293.25 207.32
  Q 289.85 207.72 282.99 207.80
  Q 270.88 207.94 258.73 208.13
  Q 257.19 208.15 254.01 210.87
  C 252.58 212.08 253.11 214.73 253.01 216.36
  Q 252.36 227.67 252.61 238.99
  Q 252.67 242.17 252.48 246.99
  Q 252.30 251.65 252.44 255.04
  Q 253.19 272.37 252.63 290.04
  C 252.48 294.87 253.33 298.87 258.44 300.03
  Q 260.98 300.61 263.68 300.50
  Q 273.02 300.11 284.43 300.09
  Q 286.92 300.08 289.54 300.18
  Q 292.28 300.29 295.02 299.81
  Q 298.95 299.13 300.62 295.88
  Q 301.57 294.03 301.42 292.17
  C 301.17 289.09 301.19 286.35 301.54 283.21
  Q 301.76 281.12 299.66 281.08
  Q 293.48 280.97 287.44 280.78
  Q 281.82 280.60 279.99 274.80
  Q 279.39 272.89 279.69 271.35
  C 280.25 268.45 282.12 263.97 285.91 264.01
  Q 292.73 264.08 299.87 263.87
  Q 301.61 263.81 301.52 262.08
  Q 301.13 253.67 301.62 245.11
  Q 301.68 243.91 300.49 243.99
  Q 292.80 244.46 286.01 243.93
  C 283.30 243.72 281.56 241.43 280.19 239.31
  Q 279.26 237.87 279.38 236.06
  C 279.81 229.55 284.93 226.26 291.03 227.20
  Q 295.31 227.85 299.88 227.40
  Q 300.09 227.38 300.20 227.57
  Z
  M 62.44 227.15
  Q 64.52 227.29 66.71 227.15
  Q 73.16 226.73 75.53 231.82
  Q 76.93 234.83 76.45 237.58
  Q 75.78 241.42 72.92 243.07
  Q 70.33 244.57 65.84 244.44
  Q 61.01 244.31 56.38 244.37
  A 1.15 1.15 0.0 0 0 55.25 245.41
  Q 54.38 254.28 54.96 263.01
  A 1.08 1.08 0.0 0 0 56.07 264.02
  Q 61.97 263.87 68.21 263.91
  C 73.69 263.94 75.68 266.88 76.51 271.90
  C 77.46 277.60 72.19 281.12 67.01 281.11
  Q 61.30 281.10 56.05 281.01
  A 0.94 0.94 0.0 0 0 55.10 281.91
  Q 54.91 287.15 55.02 291.76
  Q 55.22 299.85 63.24 299.96
  Q 76.94 300.15 91.00 300.12
  C 96.79 300.10 102.93 299.74 102.94 292.58
  Q 103.02 255.28 102.98 220.51
  C 102.97 215.95 103.46 209.64 97.63 208.48
  Q 94.72 207.89 91.29 207.93
  Q 75.96 208.11 62.58 207.96
  Q 56.43 207.89 55.33 214.15
  Q 54.56 218.52 54.75 225.57
  A 0.62 0.62 0.0 0 1 54.57 226.03
  Q 54.48 226.13 54.42 226.25
  Q 54.25 226.60 54.62 226.70
  L 57.42 227.47
  A 1.15 1.07 43.0 0 0 57.97 227.47
  Q 59.74 227.00 61.36 227.48
  Q 61.47 227.52 61.59 227.48
  Q 61.71 227.44 61.82 227.35
  Q 62.09 227.12 62.44 227.15
  Z
  M 235.97 242.11
  A 1.37 1.37 0.0 0 0 234.60 240.74
  L 220.38 240.74
  A 1.37 1.37 0.0 0 0 219.01 242.11
  L 219.01 266.63
  A 1.37 1.37 0.0 0 0 220.38 268.00
  L 234.60 268.00
  A 1.37 1.37 0.0 0 0 235.97 266.63
  L 235.97 242.11
  Z
  M 137.00 241.58
  A 0.58 0.58 0.0 0 0 136.42 241.00
  L 120.58 241.00
  A 0.58 0.58 0.0 0 0 120.00 241.58
  L 120.00 267.42
  A 0.58 0.58 0.0 0 0 120.58 268.00
  L 136.42 268.00
  A 0.58 0.58 0.0 0 0 137.00 267.42
  L 137.00 241.58
  Z"
/>
<path fill="#ffffff" d="
  M 213.73 90.49
  C 213.02 94.86 209.29 97.01 205.16 97.18
  Q 198.81 97.43 197.51 90.99
  Q 196.28 84.91 197.04 78.01
  Q 198.15 67.97 208.14 70.26
  Q 212.63 71.30 213.47 75.57
  Q 214.94 83.03 213.73 90.49
  Z"
/>
<path fill="#ffffff" d="
  M 145.46 96.12
  C 142.69 95.16 142.02 90.27 141.84 87.80
  Q 141.36 81.18 142.87 74.79
  C 144.52 67.75 157.29 68.38 158.50 75.69
  Q 159.50 81.71 159.24 88.87
  Q 159.11 92.54 156.36 95.24
  C 153.49 98.06 148.81 97.28 145.46 96.12
  Z"
/>
</svg>
