<?xml version="1.0" encoding="UTF-8" standalone="no"?>
<!DOCTYPE svg PUBLIC "-//W3C//DTD SVG 1.1//EN" "http://www.w3.org/Graphics/SVG/1.1/DTD/svg11.dtd">
<svg xmlns="http://www.w3.org/2000/svg" version="1.1" viewBox="0.00 0.00 918.00 918.00">
<g stroke-width="2.00" fill="none" stroke-linecap="butt">
<path stroke="#4b4b4b" vector-effect="non-scaling-stroke" d="
  M 79.71 222.59
  Q 81.01 222.60 81.07 220.39"
/>
<path stroke="#4b4b4b" vector-effect="non-scaling-stroke" d="
  M 544.80 607.89
  Q 576.28 602.29 593.58 576.64
  C 597.20 571.27 600.41 564.74 602.26 558.60
  C 605.86 546.64 606.83 534.42 606.80 521.48
  Q 606.62 457.24 606.76 393.21
  C 606.80 379.83 605.95 366.30 601.69 353.78
  C 595.28 334.93 581.36 319.69 562.90 311.67
  Q 556.69 308.97 551.17 307.57
  Q 539.41 304.59 524.75 304.54
  Q 457.08 304.32 400.00 304.40
  C 384.09 304.42 367.37 303.84 352.05 308.78
  Q 329.78 315.97 315.89 334.83
  Q 307.35 346.41 304.22 359.27
  Q 302.08 368.02 301.41 379.25
  Q 300.62 392.47 300.67 410.53
  Q 300.77 451.17 300.91 489.09
  Q 300.92 494.14 300.72 498.21
  C 300.47 503.00 301.12 507.76 300.80 512.58
  C 300.26 520.89 300.88 529.25 301.53 537.62
  Q 302.64 551.88 307.78 564.85
  C 316.12 585.90 335.82 601.77 357.58 606.74
  Q 371.53 609.92 384.07 609.94
  Q 453.38 610.03 521.11 609.98
  Q 533.13 609.97 544.80 607.89"
/>
<path stroke="#4b4b4b" vector-effect="non-scaling-stroke" d="
  M 574.14 358.28
  C 567.80 344.87 555.30 335.13 540.39 332.89
  C 537.35 332.43 534.23 331.86 531.12 331.73
  Q 514.91 331.00 499.87 331.03
  Q 443.08 331.13 391.11 331.00
  Q 381.83 330.98 368.28 332.63
  C 357.00 334.01 344.13 341.30 337.83 350.68
  Q 331.59 359.97 330.07 368.01
  Q 328.08 378.53 328.06 387.61
  Q 327.93 452.72 328.00 518.93
  C 328.01 527.76 328.46 537.73 330.31 546.05
  C 333.28 559.39 342.58 571.64 355.40 577.38
  Q 362.63 580.62 368.52 581.42
  Q 378.24 582.76 389.75 582.81
  Q 418.87 582.94 449.62 582.94
  Q 494.29 582.95 526.41 582.39
  Q 531.04 582.31 536.00 581.79
  C 555.97 579.67 572.20 567.02 577.13 547.51
  Q 579.63 537.62 579.64 525.39
  Q 579.69 458.86 579.66 390.22
  C 579.65 379.56 578.68 367.90 574.14 358.28"
/>
</g>
<path fill="#020102" d="
  M 79.71 222.59
  Q 81.01 222.60 81.07 220.39
  Q 81.17 219.78 81.70 218.96
  Q 110.79 174.44 149.76 137.71
  Q 154.26 133.47 163.17 125.67
  Q 170.03 119.67 176.97 114.13
  Q 225.98 75.07 283.96 50.76
  C 285.68 50.04 287.61 49.88 289.09 48.75
  A 1.32 1.29 -58.2 0 1 290.11 48.50
  Q 290.99 48.65 291.61 48.04
  Q 292.20 47.44 293.08 47.09
  Q 314.61 38.56 334.78 33.00
  Q 348.74 29.15 366.96 25.21
  Q 383.74 21.57 403.18 19.41
  C 403.95 19.33 404.71 19.63 405.40 19.10
  Q 405.82 18.77 406.32 18.94
  C 407.83 19.43 409.08 18.72 410.53 18.55
  Q 443.71 14.70 476.43 16.48
  Q 498.57 17.68 524.70 21.68
  Q 571.20 28.80 616.47 46.39
  Q 711.62 83.36 781.35 157.70
  Q 786.00 162.67 790.46 167.86
  Q 795.05 173.21 799.26 178.27
  Q 841.27 228.84 866.23 288.26
  Q 868.69 294.10 870.92 299.91
  Q 873.14 305.68 875.37 311.80
  Q 880.53 325.91 886.58 347.09
  Q 890.11 359.45 894.80 384.54
  Q 898.10 402.25 900.83 431.00
  C 902.18 445.31 902.09 459.71 901.93 474.01
  C 901.80 486.15 900.48 497.70 899.23 509.57
  C 893.80 561.15 879.24 612.02 856.03 658.58
  Q 854.63 661.39 853.44 664.35
  C 852.94 665.59 852.38 665.53 851.82 666.45
  Q 851.65 666.73 851.83 667.00
  Q 852.08 667.36 851.69 667.57
  Q 850.50 668.18 850.79 669.49
  Q 850.86 669.81 850.61 670.02
  Q 849.39 671.04 848.69 672.77
  Q 847.88 674.78 846.73 676.59
  C 845.98 677.76 845.67 679.30 844.65 680.11
  Q 844.14 680.51 844.24 681.15
  Q 844.43 682.31 843.29 682.72
  Q 842.72 682.93 842.59 683.54
  Q 842.26 685.14 841.18 686.51
  C 839.96 688.07 839.40 689.87 838.38 691.55
  C 805.26 745.75 763.05 792.01 711.56 827.63
  Q 704.44 832.56 696.78 837.56
  Q 695.47 838.41 694.17 838.99
  Q 692.65 839.66 691.53 840.94
  Q 691.20 841.31 690.71 841.21
  Q 690.07 841.07 689.78 841.63
  Q 689.57 842.03 689.20 842.30
  Q 686.89 843.98 684.63 844.97
  Q 683.19 845.60 681.90 846.71
  Q 680.85 847.61 679.56 848.00
  C 677.79 848.53 676.46 849.95 674.80 850.87
  Q 671.47 852.71 668.12 854.52
  C 667.04 855.11 665.72 855.28 664.88 856.18
  Q 664.57 856.51 664.15 856.69
  L 658.56 859.10
  A 0.80 0.80 0.0 0 0 658.08 859.73
  Q 658.02 860.19 657.65 860.10
  Q 657.01 859.94 656.53 860.39
  Q 655.56 861.31 654.22 861.78
  Q 653.01 862.21 651.87 862.86
  Q 650.75 863.50 649.58 864.05
  Q 614.10 880.79 581.73 890.26
  Q 551.01 899.24 520.73 903.67
  Q 511.14 905.07 501.49 906.04
  Q 485.44 907.64 471.69 908.73
  C 470.83 908.80 470.33 908.73 469.59 908.34
  Q 469.08 908.07 468.56 908.31
  Q 466.82 909.13 464.63 908.91
  Q 463.02 908.75 461.38 908.81
  Q 453.92 909.08 445.74 908.88
  Q 445.25 908.87 444.84 908.58
  Q 444.46 908.31 444.07 908.58
  Q 443.68 908.85 443.21 908.83
  L 439.80 908.76
  A 1.03 1.02 -21.1 0 1 439.09 908.45
  Q 438.38 907.71 437.37 907.74
  A 0.45 0.44 -90.0 0 0 436.94 908.18
  Q 436.93 908.37 436.83 908.53
  Q 436.49 909.05 436.16 908.52
  L 436.01 908.27
  Q 435.64 907.66 435.09 908.10
  Q 433.92 909.03 431.71 908.47
  Q 431.18 908.33 431.17 907.78
  Q 431.16 907.59 430.97 907.54
  Q 430.48 907.40 430.03 907.63
  Q 429.40 907.96 428.81 907.54
  Q 428.42 907.26 427.93 907.29
  C 426.25 907.40 424.71 907.65 423.00 907.43
  Q 419.14 906.95 412.81 906.42
  Q 395.67 905.00 376.47 901.43
  C 375.11 901.18 373.63 900.41 372.32 900.49
  Q 371.51 900.54 370.76 900.28
  C 369.12 899.69 367.46 899.79 365.77 899.44
  Q 270.38 879.41 191.99 822.25
  Q 176.58 811.01 158.26 794.78
  C 96.01 739.64 50.61 667.11 27.42 587.22
  Q 19.56 560.17 15.57 536.12
  Q 12.88 519.90 11.06 496.75
  Q 11.03 496.42 10.74 496.24
  A 0.61 0.59 -77.3 0 1 10.44 495.75
  Q 10.25 493.05 10.39 490.45
  Q 10.49 488.69 9.92 487.07
  Q 9.10 484.72 9.35 481.59
  Q 9.38 481.28 9.65 481.12
  L 9.87 480.98
  Q 10.07 480.86 9.96 480.65
  Q 8.33 477.55 9.73 474.50
  Q 10.00 473.90 9.35 473.97
  Q 9.10 473.99 9.11 473.48
  Q 9.13 473.06 9.52 472.95
  Q 9.67 472.91 9.75 472.78
  Q 9.97 472.43 9.64 472.19
  L 9.35 471.98
  Q 9.02 471.73 9.02 471.31
  L 9.02 455.66
  A 1.05 1.01 -22.4 0 1 9.35 454.91
  Q 9.85 454.46 9.34 454.02
  A 0.78 0.77 -69.7 0 1 9.06 453.40
  L 9.27 445.89
  Q 9.29 445.38 9.65 445.02
  Q 9.87 444.81 10.00 444.56
  A 0.38 0.38 0.0 0 0 9.73 444.01
  Q 9.52 443.97 9.38 443.80
  Q 9.05 443.43 9.49 443.19
  Q 10.31 442.75 9.76 441.99
  Q 9.47 441.60 9.52 441.11
  Q 10.92 426.93 12.21 413.01
  C 12.70 407.74 13.99 402.78 14.39 397.65
  C 14.76 392.90 15.84 388.44 16.47 383.84
  C 16.71 382.11 17.44 380.44 17.73 378.72
  Q 19.38 368.68 21.72 359.16
  Q 30.62 323.09 41.70 296.44
  Q 53.41 268.26 62.80 251.08
  Q 68.96 239.81 74.31 230.77
  Q 76.27 227.45 79.71 222.59
  Z
  M 544.80 607.89
  Q 576.28 602.29 593.58 576.64
  C 597.20 571.27 600.41 564.74 602.26 558.60
  C 605.86 546.64 606.83 534.42 606.80 521.48
  Q 606.62 457.24 606.76 393.21
  C 606.80 379.83 605.95 366.30 601.69 353.78
  C 595.28 334.93 581.36 319.69 562.90 311.67
  Q 556.69 308.97 551.17 307.57
  Q 539.41 304.59 524.75 304.54
  Q 457.08 304.32 400.00 304.40
  C 384.09 304.42 367.37 303.84 352.05 308.78
  Q 329.78 315.97 315.89 334.83
  Q 307.35 346.41 304.22 359.27
  Q 302.08 368.02 301.41 379.25
  Q 300.62 392.47 300.67 410.53
  Q 300.77 451.17 300.91 489.09
  Q 300.92 494.14 300.72 498.21
  C 300.47 503.00 301.12 507.76 300.80 512.58
  C 300.26 520.89 300.88 529.25 301.53 537.62
  Q 302.64 551.88 307.78 564.85
  C 316.12 585.90 335.82 601.77 357.58 606.74
  Q 371.53 609.92 384.07 609.94
  Q 453.38 610.03 521.11 609.98
  Q 533.13 609.97 544.80 607.89
  Z"
/>
<path fill="#949494" d="
  M 81.07 220.39
  Q 81.01 222.60 79.71 222.59
  L 81.07 220.39
  Z"
/>
<path fill="#949494" d="
  M 544.80 607.89
  Q 533.13 609.97 521.11 609.98
  Q 453.38 610.03 384.07 609.94
  Q 371.53 609.92 357.58 606.74
  C 335.82 601.77 316.12 585.90 307.78 564.85
  Q 302.64 551.88 301.53 537.62
  C 300.88 529.25 300.26 520.89 300.80 512.58
  C 301.12 507.76 300.47 503.00 300.72 498.21
  Q 300.92 494.14 300.91 489.09
  Q 300.77 451.17 300.67 410.53
  Q 300.62 392.47 301.41 379.25
  Q 302.08 368.02 304.22 359.27
  Q 307.35 346.41 315.89 334.83
  Q 329.78 315.97 352.05 308.78
  C 367.37 303.84 384.09 304.42 400.00 304.40
  Q 457.08 304.32 524.75 304.54
  Q 539.41 304.59 551.17 307.57
  Q 556.69 308.97 562.90 311.67
  C 581.36 319.69 595.28 334.93 601.69 353.78
  C 605.95 366.30 606.80 379.83 606.76 393.21
  Q 606.62 457.24 606.80 521.48
  C 606.83 534.42 605.86 546.64 602.26 558.60
  C 600.41 564.74 597.20 571.27 593.58 576.64
  Q 576.28 602.29 544.80 607.89
  Z
  M 574.14 358.28
  C 567.80 344.87 555.30 335.13 540.39 332.89
  C 537.35 332.43 534.23 331.86 531.12 331.73
  Q 514.91 331.00 499.87 331.03
  Q 443.08 331.13 391.11 331.00
  Q 381.83 330.98 368.28 332.63
  C 357.00 334.01 344.13 341.30 337.83 350.68
  Q 331.59 359.97 330.07 368.01
  Q 328.08 378.53 328.06 387.61
  Q 327.93 452.72 328.00 518.93
  C 328.01 527.76 328.46 537.73 330.31 546.05
  C 333.28 559.39 342.58 571.64 355.40 577.38
  Q 362.63 580.62 368.52 581.42
  Q 378.24 582.76 389.75 582.81
  Q 418.87 582.94 449.62 582.94
  Q 494.29 582.95 526.41 582.39
  Q 531.04 582.31 536.00 581.79
  C 555.97 579.67 572.20 567.02 577.13 547.51
  Q 579.63 537.62 579.64 525.39
  Q 579.69 458.86 579.66 390.22
  C 579.65 379.56 578.68 367.90 574.14 358.28
  Z"
/>
<path fill="#020102" d="
  M 540.39 332.89
  C 555.30 335.13 567.80 344.87 574.14 358.28
  C 578.68 367.90 579.65 379.56 579.66 390.22
  Q 579.69 458.86 579.64 525.39
  Q 579.63 537.62 577.13 547.51
  C 572.20 567.02 555.97 579.67 536.00 581.79
  Q 531.04 582.31 526.41 582.39
  Q 494.29 582.95 449.62 582.94
  Q 418.87 582.94 389.75 582.81
  Q 378.24 582.76 368.52 581.42
  Q 362.63 580.62 355.40 577.38
  C 342.58 571.64 333.28 559.39 330.31 546.05
  C 328.46 537.73 328.01 527.76 328.00 518.93
  Q 327.93 452.72 328.06 387.61
  Q 328.08 378.53 330.07 368.01
  Q 331.59 359.97 337.83 350.68
  C 344.13 341.30 357.00 334.01 368.28 332.63
  Q 381.83 330.98 391.11 331.00
  Q 443.08 331.13 499.87 331.03
  Q 514.91 331.00 531.12 331.73
  C 534.23 331.86 537.35 332.43 540.39 332.89
  Z"
/>
</svg>
