<?xml version="1.0" encoding="UTF-8" standalone="no"?>
<!DOCTYPE svg PUBLIC "-//W3C//DTD SVG 1.1//EN" "http://www.w3.org/Graphics/SVG/1.1/DTD/svg11.dtd">
<svg xmlns="http://www.w3.org/2000/svg" version="1.1" viewBox="0.00 0.00 502.00 499.00">
<path fill="#ffffff" d="
  M 92.66 116.25
  Q 93.39 114.88 94.87 115.45
  Q 95.31 115.62 95.73 115.40
  Q 96.36 115.08 97.06 115.17
  Q 97.70 115.26 98.40 115.20
  Q 109.78 114.20 121.90 115.04
  A 0.98 0.97 -9.7 0 0 122.87 113.68
  L 122.13 111.96
  A 1.31 1.29 51.0 0 1 122.25 110.70
  Q 123.52 108.87 124.09 106.59
  C 125.51 100.98 129.26 97.09 134.92 95.11
  Q 139.73 93.43 143.51 93.38
  Q 162.13 93.17 182.25 93.12
  Q 186.25 93.11 190.34 93.14
  Q 194.16 93.17 197.17 94.92
  Q 200.52 96.87 203.45 99.72
  Q 206.05 102.27 207.50 105.91
  Q 209.04 109.76 209.06 114.14
  A 0.85 0.84 88.4 0 0 209.94 114.98
  Q 223.36 114.36 237.50 114.94
  Q 241.65 115.11 251.42 114.47
  C 253.00 114.37 254.25 114.89 255.79 114.78
  Q 256.30 114.74 256.62 114.34
  Q 257.57 113.12 258.92 112.31
  Q 264.13 109.20 269.43 107.81
  C 272.84 106.91 278.13 106.89 282.18 106.90
  Q 344.63 107.08 403.47 106.98
  C 412.46 106.96 421.80 106.53 430.27 107.43
  C 439.97 108.47 446.78 114.55 452.19 122.25
  Q 453.31 123.85 453.55 125.69
  Q 453.77 127.52 454.74 129.13
  C 456.22 131.60 455.98 136.11 455.73 138.88
  C 455.23 144.60 455.84 150.44 455.73 156.14
  Q 455.63 161.42 455.68 166.62
  Q 455.93 192.23 455.62 218.00
  Q 455.51 227.76 455.70 237.67
  Q 455.99 252.33 455.92 266.98
  Q 455.87 276.30 453.84 282.83
  Q 452.58 286.86 452.33 290.33
  Q 452.06 294.06 452.04 297.89
  Q 451.90 328.92 452.16 366.44
  Q 452.22 375.55 447.75 383.26
  Q 444.52 388.83 439.42 393.65
  Q 437.26 395.69 434.41 397.00
  C 430.18 398.95 426.58 401.22 421.75 401.32
  Q 403.57 401.69 385.37 401.72
  Q 369.51 401.75 352.37 401.70
  Q 352.07 401.69 351.77 401.59
  Q 351.46 401.47 351.13 401.48
  Q 333.10 401.86 313.28 401.49
  C 311.64 401.46 309.88 401.17 308.30 401.40
  C 304.42 401.98 300.72 401.20 296.88 401.39
  Q 287.63 401.87 279.22 401.69
  Q 271.74 401.53 264.03 401.61
  Q 247.90 401.79 227.83 401.65
  Q 224.71 401.63 221.65 401.81
  Q 218.32 402.00 215.49 401.90
  Q 209.67 401.69 202.88 401.68
  Q 162.10 401.68 121.97 401.53
  C 119.50 401.52 116.94 401.21 114.49 401.37
  Q 107.93 401.79 101.24 401.63
  Q 92.96 401.44 84.98 397.26
  Q 82.78 396.11 80.84 394.57
  Q 79.01 393.12 77.28 391.35
  C 75.11 389.13 73.75 386.49 72.07 383.97
  Q 70.81 382.10 70.00 380.00
  Q 66.80 371.76 67.27 364.52
  Q 67.39 362.73 67.23 360.99
  Q 67.08 359.44 67.47 357.89
  Q 67.61 357.32 67.02 357.30
  Q 62.58 357.16 57.73 356.89
  Q 54.97 356.74 53.11 355.38
  Q 50.32 353.35 47.94 350.31
  C 46.64 348.65 46.76 346.98 46.13 345.11
  Q 45.75 343.99 45.76 342.86
  C 45.82 332.03 45.47 320.96 45.63 310.09
  Q 45.73 303.29 45.63 296.28
  C 45.57 292.18 47.40 283.55 51.66 281.22
  Q 53.89 279.99 56.81 278.97
  Q 58.89 278.24 61.44 278.39
  Q 63.99 278.53 66.31 278.69
  A 1.41 1.40 85.8 0 0 67.77 276.99
  C 67.56 275.99 67.21 275.12 67.49 274.10
  C 68.00 272.25 67.36 270.51 67.38 268.64
  Q 67.48 254.96 67.34 241.49
  Q 67.24 231.48 67.23 221.50
  Q 67.21 193.73 67.36 169.25
  Q 67.42 160.32 67.33 152.26
  Q 67.24 143.98 68.57 139.86
  Q 71.40 131.11 76.89 125.84
  Q 82.90 120.08 91.51 116.23
  Q 91.91 116.05 92.24 116.35
  Q 92.35 116.45 92.50 116.40
  Q 92.61 116.36 92.66 116.25
  Z
  M 185.99 104.98
  C 180.22 105.10 174.30 104.90 168.96 105.07
  Q 154.14 105.55 142.21 105.29
  Q 141.40 105.28 140.74 105.75
  Q 139.35 106.76 137.58 107.23
  A 1.65 1.64 -86.3 0 0 136.48 108.20
  L 134.46 113.25
  A 1.15 1.14 14.3 0 0 135.39 114.81
  C 137.91 115.12 140.49 115.57 143.01 115.47
  C 150.44 115.20 158.18 115.70 165.50 115.43
  Q 175.33 115.06 184.82 115.51
  Q 188.66 115.69 191.44 115.37
  C 193.15 115.17 194.52 115.73 196.15 115.14
  A 0.70 0.69 -29.2 0 1 196.93 115.36
  Q 197.12 115.58 197.37 115.66
  Q 198.05 115.85 198.03 115.15
  Q 197.98 112.33 196.72 109.30
  C 194.96 105.04 189.80 104.90 185.99 104.98
  Z
  M 98.20 126.52
  Q 97.80 126.42 97.37 126.54
  C 91.23 128.26 88.15 131.22 84.17 135.52
  Q 82.43 137.41 81.57 140.16
  C 81.29 141.08 80.44 141.23 80.24 142.32
  Q 78.99 149.12 79.29 156.48
  Q 79.59 164.00 79.53 170.00
  Q 79.34 187.69 79.35 200.75
  Q 79.38 234.99 79.40 272.09
  Q 79.40 276.38 79.54 280.54
  Q 79.74 286.24 79.60 289.18
  Q 79.00 301.38 79.55 311.99
  C 79.84 317.58 79.32 323.19 79.48 328.75
  Q 79.66 335.12 79.54 341.13
  Q 79.43 346.72 79.37 352.57
  Q 79.34 355.47 79.54 358.35
  Q 79.83 362.41 79.71 364.04
  Q 79.44 367.81 79.31 372.17
  Q 79.29 372.64 79.52 373.06
  Q 81.55 376.77 83.17 380.22
  Q 84.63 383.30 89.50 386.81
  Q 89.87 387.08 90.18 387.41
  Q 90.50 387.75 90.98 387.75
  Q 91.39 387.75 91.70 388.03
  C 93.91 390.03 98.60 390.75 101.51 390.69
  Q 109.27 390.54 116.00 390.69
  Q 121.76 390.83 127.49 390.77
  Q 133.61 390.71 139.01 390.49
  Q 143.77 390.30 147.18 390.46
  Q 151.31 390.65 155.34 390.65
  Q 194.05 390.68 229.50 390.79
  Q 254.98 390.86 275.43 390.54
  C 276.57 390.52 277.50 390.83 278.68 390.59
  Q 279.81 390.37 281.08 390.40
  Q 300.70 390.82 325.74 390.71
  Q 369.16 390.54 416.03 390.80
  Q 418.75 390.81 421.51 390.48
  C 425.80 389.97 428.86 388.03 432.38 385.66
  Q 435.22 383.74 436.86 381.27
  C 440.25 376.20 441.34 371.05 441.25 365.07
  Q 441.17 359.26 441.26 353.76
  Q 441.36 348.01 441.26 342.56
  Q 440.85 321.26 441.34 303.14
  Q 441.38 301.74 441.08 300.44
  A 1.28 1.27 54.1 0 1 441.22 299.52
  Q 441.43 299.15 441.61 298.78
  Q 442.02 297.94 441.20 298.39
  Q 438.56 299.83 435.99 300.95
  C 431.58 302.87 425.63 303.33 420.71 303.29
  Q 409.49 303.21 398.24 303.52
  C 395.66 303.59 393.27 303.25 390.74 303.37
  Q 387.76 303.51 384.74 303.39
  C 380.82 303.24 376.92 303.54 373.00 303.42
  Q 362.66 303.11 350.75 303.52
  C 348.60 303.59 346.10 303.36 343.75 303.35
  Q 324.79 303.22 303.24 303.31
  Q 298.19 303.33 293.43 303.26
  Q 291.62 303.23 283.60 303.50
  Q 277.79 303.70 271.96 302.73
  Q 264.99 301.57 259.89 297.77
  Q 258.77 296.93 257.57 296.26
  C 255.87 295.32 254.95 294.00 253.53 292.77
  Q 252.47 291.86 251.81 290.52
  C 249.80 286.53 247.40 282.85 246.86 278.25
  C 246.08 271.60 245.81 264.50 245.93 257.99
  Q 246.22 242.58 246.12 228.99
  C 246.07 220.70 246.49 212.55 246.25 204.32
  Q 246.11 199.73 246.07 195.50
  Q 245.77 165.73 246.26 136.02
  Q 246.29 134.03 247.08 132.01
  C 247.68 130.48 247.25 129.17 248.21 127.68
  Q 249.46 125.76 247.17 125.90
  Q 237.74 126.47 229.35 126.40
  C 200.03 126.15 171.60 126.52 142.75 126.32
  C 139.16 126.29 135.72 126.75 132.09 126.54
  Q 128.14 126.31 123.76 126.49
  Q 122.68 126.53 121.40 126.49
  Q 112.34 126.20 101.94 126.23
  Q 100.24 126.24 98.94 126.53
  Q 98.57 126.61 98.20 126.52
  Z
  M 408.13 138.88
  Q 387.69 138.96 367.25 138.67
  Q 361.78 138.60 356.25 138.69
  Q 354.07 138.72 352.05 138.56
  Q 349.98 138.39 347.90 138.48
  Q 344.46 138.63 341.13 138.51
  C 337.49 138.39 333.63 138.74 329.75 138.77
  Q 311.09 138.93 292.04 139.01
  C 285.17 139.04 281.47 138.43 277.83 143.52
  Q 275.03 147.45 275.02 152.17
  Q 274.98 207.14 275.00 263.39
  Q 275.00 266.36 276.42 268.56
  Q 276.52 268.72 276.50 268.90
  Q 276.49 269.04 276.50 269.19
  Q 276.52 269.48 276.75 269.67
  C 280.28 272.73 282.29 275.23 287.57 275.41
  Q 291.52 275.55 295.17 275.35
  Q 296.82 275.26 298.44 275.43
  Q 300.02 275.58 301.58 275.51
  Q 306.78 275.26 311.74 275.59
  Q 313.50 275.71 315.29 275.49
  Q 316.89 275.29 318.65 275.49
  Q 321.42 275.81 324.25 275.59
  Q 326.72 275.40 329.38 275.57
  C 335.48 275.97 341.48 275.42 347.54 275.63
  Q 357.47 275.98 367.24 275.59
  C 370.46 275.47 373.75 275.97 377.01 275.76
  Q 384.99 275.27 388.27 275.33
  Q 400.19 275.57 411.49 275.31
  C 414.12 275.25 416.95 275.74 419.31 274.61
  Q 424.97 271.92 426.27 265.75
  Q 426.82 263.16 426.82 260.00
  Q 426.89 227.07 426.62 203.25
  Q 426.60 201.25 426.68 199.91
  C 426.87 196.95 426.43 194.18 426.61 191.20
  Q 426.78 188.44 426.73 185.81
  Q 426.58 176.41 426.66 166.24
  Q 426.69 163.50 426.60 161.08
  C 426.47 157.12 427.40 153.88 426.28 149.87
  Q 425.97 148.77 426.61 147.69
  A 0.24 0.23 -72.4 0 0 426.43 147.33
  Q 426.28 147.32 426.14 147.27
  Q 425.83 147.16 425.63 146.90
  Q 423.65 144.27 422.79 141.77
  A 1.07 1.06 -5.1 0 0 421.95 141.07
  Q 420.28 140.83 419.05 139.57
  Q 418.57 139.08 417.95 139.38
  Q 417.00 139.84 416.29 139.02
  Q 415.93 138.62 415.40 138.65
  Q 411.83 138.86 408.13 138.88
  Z
  M 57.86 303.66
  Q 58.08 316.26 57.64 329.87
  Q 57.45 335.71 57.72 341.72
  Q 57.74 342.23 57.57 342.71
  Q 57.13 343.94 58.03 344.70
  Q 60.33 346.64 63.42 346.48
  C 64.73 346.41 65.45 346.74 66.64 346.99
  A 1.10 1.10 0.0 0 0 67.96 345.91
  L 67.99 291.37
  Q 67.99 290.22 66.86 290.33
  L 60.87 290.89
  Q 58.56 291.11 58.34 293.41
  Q 57.78 299.37 57.86 303.66
  Z"
/>
<path fill="#ffffff" d="
  M 406.02 177.81
  C 406.97 179.34 407.22 181.03 408.04 182.62
  Q 412.23 190.79 413.18 200.05
  Q 413.98 207.82 413.20 215.52
  Q 412.90 218.54 412.04 221.29
  C 411.24 223.85 411.02 226.37 410.03 228.87
  Q 402.34 248.28 386.22 259.28
  Q 382.00 262.16 375.02 265.21
  Q 367.93 268.31 362.19 269.16
  Q 352.01 270.67 342.66 269.67
  Q 340.29 269.41 337.88 268.68
  C 335.70 268.02 333.57 267.85 331.35 267.02
  Q 322.55 263.71 318.26 260.68
  Q 315.35 258.63 311.90 256.17
  Q 308.52 253.77 306.10 251.22
  Q 301.82 246.69 298.71 241.28
  Q 297.36 238.92 295.94 236.77
  Q 294.46 234.52 293.58 232.20
  Q 288.22 218.07 288.78 203.51
  Q 289.02 197.30 291.12 190.51
  Q 293.39 183.14 296.19 178.33
  Q 299.03 173.46 303.87 167.35
  C 306.92 163.48 310.61 160.80 314.18 157.65
  Q 315.58 156.42 317.30 155.36
  Q 318.96 154.32 320.64 153.33
  Q 321.08 153.07 321.38 152.68
  Q 321.90 152.00 322.70 152.30
  Q 323.16 152.48 323.58 152.25
  Q 329.92 148.84 335.24 147.57
  Q 343.58 145.56 352.66 145.39
  C 359.71 145.26 366.90 147.34 373.76 149.60
  C 376.20 150.40 378.33 151.66 380.64 152.82
  Q 382.05 153.53 383.31 154.35
  Q 391.81 159.87 399.15 168.07
  Q 399.92 168.93 400.34 170.00
  Q 400.52 170.46 400.89 170.79
  Q 402.92 172.59 404.02 174.49
  Q 404.92 176.04 406.02 177.81
  Z
  M 302.87 197.76
  Q 302.57 198.21 302.51 198.75
  Q 301.62 206.65 302.36 214.93
  Q 302.65 218.08 304.31 222.86
  Q 306.31 228.60 307.70 231.22
  Q 309.73 235.03 315.64 241.73
  C 317.97 244.36 320.73 246.28 323.38 248.50
  Q 324.87 249.75 326.89 250.73
  Q 328.77 251.64 330.70 252.57
  Q 338.52 256.33 348.05 257.00
  Q 350.94 257.20 354.33 256.92
  Q 357.55 256.65 360.51 256.30
  Q 365.52 255.72 372.58 252.02
  Q 374.30 251.12 376.04 250.33
  Q 377.80 249.53 379.28 248.39
  C 389.19 240.79 397.30 229.89 399.58 217.60
  Q 401.19 208.90 400.00 199.78
  C 399.39 195.13 397.13 190.58 395.27 186.27
  Q 393.04 181.11 389.02 176.47
  Q 382.07 168.45 373.31 163.58
  Q 373.24 163.54 373.17 163.55
  Q 373.13 163.56 373.10 163.57
  Q 372.95 163.62 372.79 163.54
  Q 360.16 157.13 345.25 158.77
  Q 342.57 159.07 339.85 159.80
  Q 321.84 164.66 310.58 179.96
  Q 306.26 185.83 303.55 194.04
  Q 303.06 195.53 303.10 196.98
  Q 303.11 197.41 302.87 197.76
  Z"
/>
<path fill="#ffffff" d="
  M 151.51 276.59
  Q 151.30 276.59 151.13 276.74
  A 0.56 0.52 -65.3 0 1 150.76 276.89
  Q 138.94 276.86 127.00 277.09
  Q 122.51 277.18 117.86 276.49
  Q 116.92 276.35 116.12 275.83
  C 115.42 275.37 114.61 275.28 113.92 274.82
  C 109.91 272.16 109.46 268.34 109.29 264.01
  Q 109.01 256.79 109.19 245.76
  Q 109.38 234.26 109.20 222.89
  Q 109.08 215.84 109.42 209.04
  Q 109.78 201.48 109.46 195.15
  Q 108.95 184.81 109.58 175.20
  C 109.77 172.36 109.51 170.05 109.23 167.32
  Q 108.99 164.96 110.29 162.83
  C 112.83 158.68 115.58 157.13 120.49 156.89
  Q 132.36 156.31 140.76 156.44
  Q 154.93 156.67 154.99 156.67
  Q 181.59 156.77 208.18 156.70
  Q 209.17 156.70 210.17 156.62
  Q 213.10 156.38 217.45 156.97
  C 221.56 157.52 223.15 159.92 224.96 163.30
  Q 225.87 165.01 225.88 168.01
  Q 225.90 174.84 225.99 181.66
  Q 226.09 188.64 225.94 195.32
  Q 225.52 213.90 225.61 226.37
  Q 225.74 242.09 225.70 251.00
  Q 225.68 255.17 225.87 259.57
  Q 226.09 264.34 225.45 268.15
  C 224.12 276.00 217.17 277.15 210.52 277.06
  Q 180.04 276.66 151.51 276.59
  Z
  M 177.96 261.14
  Q 193.76 260.87 205.76 261.24
  Q 208.70 261.32 211.20 260.83
  A 0.83 0.82 -5.5 0 0 211.87 260.02
  L 212.04 172.24
  Q 212.04 170.22 210.03 170.49
  Q 204.23 171.29 197.41 170.56
  C 196.45 170.46 195.74 170.97 194.81 170.82
  Q 193.84 170.66 192.85 170.70
  Q 188.49 170.87 184.27 170.57
  Q 182.01 170.41 179.67 170.57
  Q 177.30 170.73 174.81 170.66
  Q 164.50 170.39 153.20 170.74
  C 152.19 170.77 151.43 170.28 150.40 170.79
  Q 150.01 170.99 149.61 170.80
  C 148.48 170.26 147.47 170.83 146.21 170.73
  Q 142.15 170.43 138.68 171.24
  Q 138.10 171.38 138.27 171.95
  Q 139.12 174.93 138.90 178.35
  Q 138.75 180.71 138.79 183.15
  Q 139.00 196.68 138.82 210.65
  Q 138.71 220.09 138.87 229.36
  Q 139.04 239.08 138.71 248.04
  C 138.55 252.24 139.14 256.26 138.95 260.39
  Q 138.93 260.63 138.77 260.81
  L 138.46 261.14
  Q 138.12 261.51 138.62 261.51
  Q 138.88 261.50 139.04 261.33
  Q 139.27 261.07 139.62 261.08
  Q 158.53 261.47 177.96 261.14
  Z"
/>
<path fill="#ffffff" d="
  M 392.62 225.33
  Q 388.46 233.86 384.46 237.99
  Q 375.44 247.31 364.16 251.02
  Q 356.22 253.62 345.30 252.63
  C 341.30 252.26 337.33 250.52 333.45 249.08
  Q 331.68 248.42 329.98 247.38
  Q 328.29 246.34 326.55 245.25
  C 314.83 237.90 306.57 224.22 306.16 210.31
  Q 305.82 198.71 309.81 190.19
  Q 318.22 172.26 335.38 165.57
  Q 350.27 159.77 365.71 165.26
  Q 373.87 168.16 382.54 175.76
  C 385.10 178.00 386.29 180.89 389.00 182.86
  Q 389.55 183.27 389.49 183.94
  Q 389.41 184.84 389.87 185.60
  Q 392.77 190.34 393.80 193.50
  Q 398.00 206.29 394.77 219.50
  C 394.21 221.76 393.61 223.31 392.62 225.33
  Z
  M 352.12 190.58
  Q 354.85 197.25 361.79 198.46
  Q 372.70 200.35 377.75 190.60
  C 379.07 188.06 378.44 185.68 378.69 183.04
  Q 378.74 182.38 378.30 181.89
  L 375.70 179.02
  Q 375.27 178.54 375.10 177.92
  L 374.78 176.83
  Q 374.57 176.10 373.83 175.97
  L 371.76 175.63
  Q 371.10 175.52 370.83 174.91
  Q 370.62 174.43 370.14 174.55
  Q 369.63 174.68 369.16 174.44
  Q 367.46 173.57 366.74 173.55
  Q 365.36 173.50 360.50 174.30
  Q 357.88 174.73 356.35 176.08
  Q 350.30 181.47 351.55 189.88
  Q 351.57 190.00 351.69 190.03
  Q 351.83 190.06 351.91 190.17
  Q 352.03 190.37 352.12 190.58
  Z
  M 374.81 214.03
  Q 374.92 214.30 375.18 214.45
  Q 375.40 214.58 375.65 214.61
  Q 379.09 215.03 382.23 214.35
  Q 382.64 214.26 382.92 213.94
  C 384.85 211.72 387.06 211.27 386.56 207.69
  Q 385.54 200.37 377.82 200.52
  Q 374.80 200.58 372.76 203.50
  Q 368.85 209.09 373.34 213.35
  Q 373.49 213.50 373.67 213.58
  Q 373.76 213.62 373.85 213.59
  Q 374.54 213.36 374.81 214.03
  Z"
/>
<path fill="#ffffff" d="
  M 195.16 352.67
  Q 194.56 353.04 194.25 353.77
  Q 194.04 354.26 193.61 354.58
  Q 187.60 358.97 179.37 361.85
  Q 177.17 362.62 174.49 362.81
  Q 172.16 362.98 169.49 363.15
  Q 163.27 363.54 158.69 362.07
  Q 156.02 361.21 153.22 360.23
  C 146.71 357.94 140.80 353.16 135.96 348.05
  Q 135.19 347.23 134.77 346.21
  C 134.37 345.23 133.51 344.76 132.96 343.81
  Q 129.79 338.41 127.84 332.30
  C 126.20 327.17 126.77 322.31 127.04 317.11
  Q 127.24 313.34 128.40 310.05
  Q 130.17 305.00 132.23 301.04
  Q 133.73 298.14 136.38 295.55
  Q 136.61 295.32 136.50 295.03
  A 0.46 0.45 69.4 0 1 136.76 294.44
  C 139.56 293.36 140.77 290.56 143.22 288.80
  Q 148.66 284.91 153.64 283.03
  Q 160.81 280.31 170.36 280.22
  Q 174.73 280.17 178.75 281.77
  Q 181.78 282.97 184.82 284.06
  Q 187.81 285.13 190.44 286.87
  C 197.13 291.30 204.98 299.19 207.17 307.18
  Q 208.85 313.27 209.35 319.51
  Q 209.90 326.51 208.33 331.92
  Q 204.73 344.33 195.69 353.38
  Q 194.82 354.25 195.31 353.11
  Q 195.35 353.02 195.41 352.94
  Q 196.11 352.08 195.16 352.67
  Z
  M 193.69 307.65
  Q 193.48 307.39 193.52 307.12
  Q 193.59 306.75 193.35 306.47
  C 191.37 304.10 190.10 301.38 187.37 299.66
  Q 184.94 298.13 182.69 296.32
  C 180.36 294.45 174.29 292.46 171.34 292.52
  Q 169.48 292.56 167.64 292.36
  Q 164.91 292.07 162.37 292.85
  Q 155.27 295.03 150.99 298.19
  Q 136.35 309.00 139.14 328.03
  C 139.68 331.69 142.01 334.87 143.67 338.15
  Q 144.81 340.41 146.71 342.03
  C 150.84 345.57 157.30 350.47 162.38 350.58
  Q 164.58 350.62 166.82 350.83
  Q 175.40 351.61 181.76 347.98
  Q 194.15 340.91 197.20 326.33
  C 197.63 324.28 197.29 322.20 197.34 320.08
  Q 197.42 317.31 196.74 313.12
  A 1.32 1.31 -77.9 0 0 196.16 312.22
  C 194.59 311.18 195.47 309.12 193.78 307.73
  A 0.96 0.37 20.8 0 1 193.69 307.65
  Z"
/>
</svg>
