<?xml version="1.0" encoding="UTF-8" standalone="no"?>
<!DOCTYPE svg PUBLIC "-//W3C//DTD SVG 1.1//EN" "http://www.w3.org/Graphics/SVG/1.1/DTD/svg11.dtd">
<svg xmlns="http://www.w3.org/2000/svg" version="1.1" viewBox="0.00 0.00 1000.00 1000.00">
<path fill="#ffffff" d="
  M 443.10 0.00
  L 451.25 0.00
  Q 453.59 0.37 455.93 0.78
  C 467.88 2.90 475.78 10.05 477.18 22.26
  C 478.16 30.81 474.50 38.80 467.22 43.08
  Q 466.60 43.45 467.26 43.76
  Q 482.05 50.71 481.02 67.89
  C 479.92 86.26 465.30 93.66 448.73 94.40
  Q 434.49 95.03 419.52 89.74
  Q 418.83 89.49 418.99 88.78
  L 422.54 73.51
  A 0.48 0.48 0.0 0 1 423.20 73.18
  C 431.62 76.93 440.56 78.59 449.88 77.34
  C 457.27 76.36 461.96 71.44 461.26 63.84
  C 460.12 51.68 443.29 52.83 435.06 53.04
  A 0.55 0.55 0.0 0 1 434.50 52.49
  L 434.50 37.80
  Q 434.50 37.17 435.13 37.20
  C 442.08 37.44 455.72 38.57 457.56 29.01
  Q 458.96 21.76 453.22 18.46
  C 445.94 14.27 434.64 18.05 427.92 22.30
  Q 427.33 22.67 427.03 22.05
  L 420.48 8.55
  A 0.47 0.47 0.0 0 1 420.66 7.95
  Q 431.06 1.53 443.10 0.00
  Z"
/>
<path fill="#ffffff" d="
  M 724.13 17.17
  L 722.97 32.50
  Q 722.94 32.99 723.43 33.03
  C 736.65 33.96 752.06 37.79 757.50 51.44
  Q 760.32 58.50 759.38 66.74
  C 757.24 85.56 740.90 92.89 723.37 92.46
  Q 711.33 92.17 698.96 88.12
  A 0.74 0.73 15.6 0 1 698.47 87.26
  L 701.82 72.02
  Q 701.94 71.50 702.43 71.71
  Q 713.61 76.39 725.72 75.65
  C 733.81 75.15 741.23 71.02 739.96 61.65
  C 738.61 51.77 726.67 49.64 718.27 48.83
  Q 711.64 48.20 704.48 48.27
  Q 703.88 48.27 703.95 47.68
  Q 706.50 25.03 707.58 0.85
  Q 707.61 0.25 708.20 0.25
  L 755.75 0.25
  Q 756.25 0.25 756.25 0.75
  L 756.25 16.25
  Q 756.25 16.75 755.75 16.75
  L 724.59 16.75
  Q 724.16 16.75 724.13 17.17
  Z"
/>
<path fill="#ffffff" d="
  M 158.55 28.41
  C 153.33 31.62 147.67 34.09 141.92 36.08
  Q 141.43 36.25 141.25 35.77
  L 135.73 21.46
  Q 135.54 20.95 136.05 20.75
  Q 149.69 15.38 161.43 5.83
  Q 163.22 4.37 164.75 2.69
  A 1.36 1.34 20.9 0 1 165.75 2.25
  L 178.25 2.25
  Q 178.75 2.25 178.75 2.75
  L 178.75 92.00
  Q 178.75 92.50 178.25 92.50
  L 159.75 92.50
  A 0.50 0.50 0.0 0 1 159.25 92.00
  L 159.25 28.80
  Q 159.25 27.97 158.55 28.41
  Z"
/>
<path fill="#ffffff" d="
  M 674.01 413.29
  Q 674.03 302.63 673.99 194.30
  Q 673.99 189.55 673.83 184.52
  C 673.58 176.96 673.80 170.45 676.11 163.26
  C 676.41 162.31 676.09 161.55 676.74 160.73
  Q 677.08 160.30 677.20 159.77
  Q 677.87 156.72 678.53 155.33
  Q 685.88 139.98 700.36 130.91
  Q 703.26 129.10 706.32 128.02
  C 709.23 127.00 712.01 125.67 715.01 125.03
  Q 723.77 123.16 733.26 123.88
  Q 743.43 124.65 753.07 129.86
  Q 761.44 134.38 768.32 142.02
  Q 774.08 148.41 776.76 154.49
  Q 781.23 164.63 781.42 174.93
  C 781.60 184.70 781.00 194.83 781.00 204.83
  Q 781.00 482.06 781.01 759.64
  Q 781.01 768.04 779.26 773.50
  C 772.74 793.89 754.93 809.37 732.92 810.20
  Q 726.90 810.43 721.32 809.99
  Q 708.90 809.01 699.35 802.98
  C 686.41 794.80 676.66 780.43 675.18 765.41
  C 674.34 756.86 673.98 748.16 673.98 739.23
  Q 674.03 628.98 673.99 521.71
  A 0.71 0.71 0.0 0 0 673.28 521.00
  L 500.53 521.00
  Q 500.00 521.00 500.00 521.53
  Q 500.00 627.76 500.00 732.90
  C 500.00 745.20 501.19 757.98 498.64 770.17
  Q 497.68 774.76 495.25 779.60
  Q 483.42 803.15 457.52 809.45
  C 452.36 810.70 446.95 810.32 441.51 810.14
  Q 436.14 809.97 430.10 808.02
  Q 411.82 802.11 401.82 786.67
  Q 396.21 778.01 394.20 768.25
  Q 392.88 761.82 392.90 749.71
  Q 393.12 635.31 392.95 521.93
  A 0.93 0.93 0.0 0 0 392.02 521.00
  L 219.52 521.00
  A 0.48 0.48 0.0 0 0 219.04 521.48
  Q 218.89 627.96 219.10 737.99
  Q 219.11 744.65 219.19 751.68
  Q 219.28 760.39 218.41 765.29
  Q 214.97 784.63 200.34 797.54
  Q 192.22 804.70 182.35 807.79
  Q 172.35 810.92 160.53 810.24
  Q 154.06 809.87 146.62 807.15
  Q 138.26 804.09 133.35 800.28
  Q 128.61 796.61 123.78 791.07
  Q 113.98 779.84 112.00 764.24
  C 111.64 761.34 111.24 758.32 111.28 755.33
  C 111.42 745.15 111.98 735.05 111.98 724.97
  Q 112.03 468.31 111.99 211.55
  C 111.99 201.33 111.62 191.11 111.39 180.92
  C 111.30 177.35 111.59 173.90 111.88 170.35
  Q 112.05 168.18 112.56 166.17
  Q 114.90 156.75 118.16 151.08
  Q 126.24 137.02 141.54 128.92
  Q 149.92 124.48 160.46 123.83
  Q 172.75 123.08 180.89 125.84
  Q 200.62 132.53 211.33 149.25
  C 215.12 155.18 218.06 164.41 218.68 171.89
  C 219.40 180.73 219.12 189.09 219.10 197.66
  Q 218.90 305.96 219.03 413.33
  Q 219.03 414.00 219.70 414.00
  L 392.54 414.00
  A 0.43 0.43 0.0 0 0 392.97 413.57
  Q 393.04 300.63 392.99 187.29
  C 392.98 177.72 392.31 168.06 395.94 159.03
  C 398.43 152.83 401.58 146.19 406.30 141.71
  C 408.42 139.70 410.06 137.32 412.38 135.58
  Q 419.89 129.96 425.59 127.64
  Q 437.11 122.97 449.79 123.90
  A 48.65 25.99 -6.9 0 1 456.20 124.64
  C 459.90 125.23 463.49 125.82 466.97 127.33
  Q 484.77 135.06 493.97 151.95
  Q 497.50 158.42 498.92 165.33
  C 501.02 175.45 500.12 185.67 500.11 195.50
  Q 500.00 307.80 500.00 413.54
  Q 500.00 414.00 500.46 414.00
  L 673.30 414.00
  Q 674.01 414.00 674.01 413.29
  Z
  M 196.57 762.28
  C 196.99 760.79 197.72 759.22 197.94 757.74
  Q 198.93 751.16 198.94 745.16
  Q 199.10 648.51 198.97 513.90
  C 198.96 504.78 204.01 500.94 212.74 500.95
  Q 306.52 501.09 400.93 500.96
  C 409.22 500.95 413.05 505.91 413.04 513.99
  Q 413.00 629.98 412.96 744.52
  Q 412.96 748.96 413.26 752.69
  Q 413.65 757.38 414.99 761.49
  Q 415.41 762.75 415.72 764.01
  Q 416.03 765.25 416.54 766.43
  Q 418.79 771.74 421.57 776.25
  C 425.56 782.71 434.15 786.31 441.33 788.32
  C 444.66 789.26 446.38 789.89 449.20 789.07
  C 455.92 787.13 464.98 783.76 469.27 778.73
  Q 479.04 767.27 479.70 751.24
  Q 479.88 746.71 479.89 742.89
  Q 480.06 636.22 480.00 516.34
  C 480.00 513.74 479.58 510.91 480.43 508.51
  Q 482.48 502.72 487.93 501.33
  Q 489.78 500.86 496.46 500.88
  Q 589.19 501.15 681.61 500.95
  C 688.72 500.94 693.99 505.30 693.99 512.71
  Q 694.06 628.30 693.97 722.92
  Q 693.96 731.32 694.33 740.27
  Q 694.85 753.21 695.61 757.93
  C 696.91 766.06 701.83 778.88 709.54 783.25
  Q 716.42 787.16 725.45 789.19
  Q 727.99 789.77 730.48 789.20
  Q 738.52 787.36 745.23 784.02
  C 748.08 782.61 750.25 780.47 752.11 777.86
  Q 760.98 765.41 760.99 750.00
  Q 761.01 469.78 761.00 193.46
  Q 760.99 180.81 760.55 177.56
  Q 759.50 169.92 755.62 162.17
  Q 751.82 154.58 744.41 150.64
  Q 738.79 147.65 734.12 146.10
  Q 732.08 145.42 729.52 145.04
  Q 727.21 144.70 725.10 145.21
  Q 716.08 147.39 708.84 152.21
  C 704.22 155.29 701.14 160.10 698.93 165.07
  C 694.98 173.97 693.94 182.68 693.95 192.54
  Q 694.03 304.34 693.99 422.35
  C 693.99 427.47 691.44 432.22 686.29 433.61
  Q 684.26 434.16 675.60 434.13
  Q 582.17 433.82 495.97 434.09
  Q 494.08 434.10 492.06 434.19
  C 484.74 434.51 479.98 429.42 479.99 422.28
  Q 480.02 298.86 479.98 186.35
  Q 479.98 173.43 473.72 161.51
  C 468.78 152.07 458.96 147.07 448.99 144.99
  Q 446.05 144.38 443.25 145.13
  C 435.81 147.14 429.43 149.84 423.80 155.22
  Q 421.02 157.90 418.64 162.82
  Q 416.07 168.14 415.06 171.80
  Q 413.69 176.75 413.28 181.80
  Q 413.07 184.44 413.07 188.37
  Q 413.11 304.87 413.04 422.37
  Q 413.04 424.17 412.85 425.25
  C 411.73 431.77 406.51 434.05 400.28 434.05
  Q 303.50 433.98 214.03 434.01
  C 211.69 434.01 209.56 434.51 207.23 433.87
  C 201.17 432.20 198.92 427.18 198.93 421.25
  Q 199.08 304.21 198.93 190.68
  Q 198.93 185.25 198.46 180.20
  Q 198.09 176.15 197.09 172.92
  Q 196.02 169.45 194.62 166.09
  C 192.60 161.25 189.98 156.14 185.58 153.10
  Q 177.48 147.50 168.72 145.28
  Q 166.11 144.62 163.74 144.91
  C 158.26 145.58 153.46 148.03 148.35 150.75
  C 143.89 153.11 140.98 155.94 138.66 160.36
  Q 137.33 162.90 135.86 165.82
  C 134.87 167.76 134.62 169.64 133.79 171.61
  Q 132.88 173.75 132.68 175.93
  C 132.50 177.94 132.03 180.00 132.03 182.02
  Q 132.01 473.37 131.97 748.26
  Q 131.97 755.15 133.22 760.53
  C 135.33 769.61 140.38 779.80 149.32 784.02
  Q 154.15 786.31 159.57 788.18
  Q 163.57 789.57 166.62 789.11
  Q 170.94 788.47 174.62 786.95
  C 179.45 784.97 184.86 783.07 188.23 778.79
  Q 193.94 771.54 196.57 762.28
  Z"
/>
<path fill="#ffffff" d="
  M 159.38 919.75
  A 0.19 0.18 -79.9 0 0 159.55 920.00
  L 197.00 920.00
  Q 197.50 920.00 197.50 920.50
  L 197.50 935.88
  Q 197.50 936.50 196.87 936.50
  L 138.19 936.50
  Q 137.65 936.50 137.60 935.97
  C 136.19 922.22 140.46 911.60 150.38 901.63
  Q 157.94 894.02 166.41 885.86
  C 171.74 880.72 176.74 874.48 174.09 866.70
  Q 172.70 862.61 167.51 861.41
  C 159.50 859.55 150.77 864.28 145.29 869.80
  A 0.49 0.49 0.0 0 1 144.54 869.73
  L 135.41 856.81
  Q 135.04 856.28 135.52 855.85
  Q 152.90 840.33 175.33 845.03
  C 184.41 846.93 191.56 852.19 193.90 861.67
  Q 197.21 875.13 189.05 886.56
  Q 183.33 894.58 176.75 900.57
  Q 167.99 908.52 160.79 917.27
  Q 159.87 918.39 159.38 919.75
  Z"
/>
<path fill="#ffffff" d="
  M 720.00 903.88
  L 720.00 935.75
  Q 720.00 936.25 719.50 936.25
  L 699.75 936.25
  A 0.25 0.25 0.0 0 1 699.50 936.00
  L 699.50 847.72
  A 0.95 0.94 -5.1 0 1 700.28 846.79
  Q 711.36 844.91 722.87 844.70
  C 738.19 844.41 760.77 846.37 766.42 864.08
  Q 768.91 871.85 767.45 880.47
  C 765.94 889.44 759.81 895.50 751.64 898.93
  Q 751.13 899.15 751.47 899.59
  Q 764.28 916.34 773.25 935.56
  Q 773.57 936.25 772.81 936.25
  L 751.05 936.25
  Q 750.44 936.25 750.15 935.71
  C 744.13 924.49 737.99 913.84 730.47 903.96
  Q 729.93 903.24 729.03 903.24
  L 720.62 903.25
  Q 720.00 903.25 720.00 903.88
  Z
  M 719.98 862.58
  L 720.02 886.54
  A 0.26 0.26 0.0 0 0 720.28 886.80
  L 731.99 886.78
  A 14.77 10.99 -0.1 0 0 746.74 875.77
  L 746.74 873.27
  A 14.77 10.99 -0.1 0 0 731.95 862.30
  L 720.24 862.32
  A 0.26 0.26 0.0 0 0 719.98 862.58
  Z"
/>
<path fill="#ffffff" d="
  M 472.50 899.25
  L 481.00 899.25
  Q 481.50 899.25 481.50 899.75
  L 481.50 914.75
  Q 481.50 915.25 481.00 915.25
  L 472.50 915.25
  Q 472.00 915.25 472.00 915.75
  L 472.00 935.00
  Q 472.00 935.50 471.50 935.50
  L 453.25 935.50
  Q 452.75 935.50 452.75 935.00
  L 452.75 915.75
  Q 452.75 915.25 452.25 915.25
  L 414.27 915.25
  A 0.54 0.54 0.0 0 1 413.73 914.70
  Q 413.80 909.13 413.72 902.91
  Q 413.70 901.24 414.50 899.71
  Q 424.85 880.06 439.39 861.37
  Q 446.29 852.50 453.20 845.67
  A 1.45 1.43 22.2 0 1 454.22 845.25
  L 471.75 845.25
  A 0.26 0.25 1.2 0 1 472.00 845.50
  L 472.00 898.75
  Q 472.00 899.25 472.50 899.25
  Z
  M 436.14 892.73
  Q 434.32 895.63 432.93 898.69
  Q 432.67 899.25 433.29 899.25
  L 452.25 899.25
  Q 452.75 899.25 452.75 898.75
  L 452.75 870.51
  Q 452.75 869.75 452.27 870.33
  Q 443.26 881.35 436.14 892.73
  Z"
/>
</svg>
